<?xml version="1.0" standalone="no"?>
<!DOCTYPE svg PUBLIC "-//W3C//DTD SVG 20010904//EN"
 "http://www.w3.org/TR/2001/REC-SVG-20010904/DTD/svg10.dtd">
<svg version="1.0" xmlns="http://www.w3.org/2000/svg"
 width="512.000000pt" height="512.000000pt" viewBox="0 0 512.000000 512.000000"
 preserveAspectRatio="xMidYMid meet">
<metadata>
Created by potrace 1.11, written by Peter Selinger 2001-2013
</metadata>
<g transform="translate(0.000000,512.000000) scale(0.100000,-0.100000)"
fill="#000000" stroke="none">
<path d="M3476 4479 c-310 -36 -558 -161 -797 -403 l-119 -121 -124 126 c-213
215 -389 314 -666 375 -102 22 -387 28 -496 10 -280 -47 -498 -157 -684 -346
-297 -300 -427 -712 -355 -1124 39 -229 148 -459 296 -632 39 -46 211 -230
395 -424 45 -47 96 -101 114 -120 32 -35 256 -271 401 -425 42 -44 91 -96 109
-115 18 -19 91 -98 164 -174 72 -76 148 -157 170 -180 21 -23 96 -102 166
-176 70 -74 142 -151 160 -170 18 -19 98 -104 178 -188 79 -83 150 -159 156
-168 14 -18 22 -10 437 431 84 89 191 203 344 365 44 47 119 125 165 175 47
49 123 130 170 180 47 49 124 131 171 180 46 50 123 131 170 180 47 50 117
124 156 165 39 41 81 87 94 101 13 15 89 95 168 178 217 228 280 312 356 474
92 193 128 358 127 572 0 221 -42 389 -144 585 -240 463 -753 731 -1282 669z"/>
</g>
</svg>
